_________________________  Visit us at _________________________
  
http://p2pdl.com  ____________________________  http://p2pdl.com

Cinderella Once Upon A Time In The West 2012 BRRip 720p x264 - PRiSTiNE

Genre: Animation
Plot: This modern take on Cinderella is set to 
the backdrop of the Wild West featuring a new 
cast of furry and feathered friends.
Director: Pascal Hérold
Stars: Alexandra Lamy, Yolande Moreau, Antoine de Caunes
Rated: Rated PG for some action, violence, brief mild language and a smoking image.

Info: 
http://www.imdb.com/title/tt1435990/

General
Complete name                  : Cinderella Once Upon A Time In The West 2012 BRRip 720p x264 - PRiSTiNE.mp4
Format                         : MPEG-4
Format profile                 : Base Media
Codec ID                       : isom
File size                      : 501 MiB
Duration                       : 1h 21mn
Overall bit rate mode          : Variable
Overall bit rate               : 861 Kbps

Source                         : 720p BluRay BRMP (Thanks)

Video
Format                         : AVC
Format/Info                    : Advanced Video Codec
Format profile                 : High 10@L4.1
Bit rate                       : 775 Kbps
Width                          : 1 280 pixels
Height                         : 720 pixels
Display aspect ratio           : 16:9
Frame rate mode                : Constant
Frame rate                     : 23.976 fps
Color space                    : YUV
Chroma subsampling             : 4:2:0
Bit depth                      : 10 bits
Scan type                      : Progressive
Bits/(Pixel*Frame)             : 0.035
Stream size                    : 450 MiB (90%)
Writing library                : x264 core 129 r2245 bc13772

Audio
Format                         : AAC
Bit rate mode                  : Variable
Bit rate                       : 83.8 Kbps
Channel(s)                     : 2 channels
Channel positions              : Front: L R
Sampling rate                  : 48.0 KHz / 24.0 KHz
Stream size                    : 48.7 MiB (10%)
Language                       : English

Subtitle                       : Yes (English)

Screens: 
http://ultraimg.com/images/ROsDM.jpg 
http://ultraimg.com/images/ilbKp.jpg 
http://ultraimg.com/images/tiw6N.jpg 
http://ultraimg.com/images/j1mHP.jpg 
http://ultraimg.com/images/jq9s.jpg

Thumbs: 
http://ultraimg.com/images/s56y0.jpg

----------------------------------------------------------------------------------------------------
Encoded using revolutionary 10bit encoding, which enables us to provide you more crispier 
and sharper images at small sizes, just make sure you follow our instructions without a fault.
Recommend to you to use latest version of VLC player. Install K-Lite Codec Pack or shark007 codecs
in case of any kind of problem in playback (For non-VLC Media Player users). Alternatively, install
Core AVC codecs, the fastest decoder that there is coupled with Community Center Codec Pack and play
on Windows Media Player Classic. Check sample to be sure.
Enjoy!

Encoder Notes: Encoder Notes: Looking For Early Access To Anything You Can Provide DVDScr, R5, DVDR, BluRay, Direct
Audio, Music Releases and Seedboxes. We require dedicated servers, so as to do more and fast releases of movies.
If You Got anything to offer contact us at "prg@hush.com".